<svg width="100" height="140" viewBox="0 0 100 140" fill="none" xmlns="http://www.w3.org/2000/svg">
<g opacity="0.5">
<path d="M34.5943 58.8481C34.5943 64.3481 34.3443 69.5981 34.5943 75.0981C35.0943 83.5981 35.5943 92.0981 36.3443 100.598C36.5943 103.098 34.8443 104.598 32.8443 105.598C30.5943 106.598 29.3443 105.098 28.8443 102.848C28.3443 100.598 27.8443 98.0981 27.5943 95.8481C27.3443 89.5981 27.5943 83.3481 27.3443 77.3481C26.8443 65.8481 25.8443 54.0981 25.0943 42.5981C24.8443 38.8481 24.8443 35.3481 28.3443 33.0981C29.0943 32.5981 30.5943 32.3481 31.3443 32.5981C42.3443 37.5981 53.0943 42.8481 63.8443 47.8481C65.3443 48.5981 67.0943 48.8481 68.8443 49.5981C71.8443 50.8481 72.8443 53.5981 73.0943 56.5981C73.3443 61.5981 73.8443 66.8481 74.0943 71.8481C74.3443 79.0981 74.5943 86.3481 74.8443 93.5981C74.8443 96.5981 75.3443 99.5981 75.3443 102.598C75.3443 104.848 74.3443 106.348 72.0943 106.348C70.0943 106.098 67.5943 105.848 67.5943 102.598C67.5943 95.5981 67.3443 88.3481 67.0943 81.3481C66.8443 73.5981 66.3443 66.0981 65.5943 58.3481C65.5943 57.0981 64.3443 55.3481 63.0943 54.8481C54.8443 50.8481 46.5943 47.0981 38.0943 43.3481C34.8443 42.0981 34.5943 42.3481 34.5943 45.8481C34.5943 50.0981 34.5943 54.5981 34.5943 58.8481Z" fill="#111827"/>
</g>
</svg>
