<svg width="100" height="140" viewBox="0 0 100 140" fill="none" xmlns="http://www.w3.org/2000/svg">
<g opacity="0.5">
<path d="M69.6543 115.406C64.1543 115.656 63.9043 115.406 63.4043 110.656C62.6543 101.906 61.9043 93.156 61.1543 84.406C61.1543 83.406 60.1543 82.406 59.4043 81.906C52.9043 77.156 46.1543 72.156 39.6543 67.656C38.6543 66.906 37.4043 66.906 36.1543 66.656C35.9043 67.656 35.4043 68.906 35.4043 69.906C35.9043 82.906 36.4043 96.156 37.1543 109.156C37.1543 111.656 36.1543 112.656 33.9043 112.906C30.6543 113.156 29.6543 112.156 29.4043 109.656C27.9043 83.656 27.1543 57.906 27.6543 31.906C27.6543 31.406 27.6543 30.656 27.6543 30.156C27.6543 28.406 27.9043 26.656 30.1543 26.656C32.6543 26.656 34.9043 28.656 34.9043 30.656C35.1543 37.656 35.1543 44.656 35.6543 51.406C35.9043 53.656 36.9043 56.406 38.6543 57.656C45.4043 62.656 52.6543 67.156 60.1543 72.156C60.4043 70.656 60.4043 69.906 60.4043 68.906C60.6543 55.656 60.9043 42.656 60.9043 29.406C60.9043 25.156 62.9043 24.156 66.6543 25.656C71.4043 27.906 71.4043 27.906 70.1543 32.656C68.1543 39.906 67.1543 47.406 67.6543 55.156C68.1543 60.656 67.9043 66.156 67.9043 71.656C68.1543 83.406 68.4043 95.406 68.6543 107.156C68.9043 109.906 69.4043 112.656 69.6543 115.406Z" fill="#111827"/>
</g>
</svg>
