<svg width="100" height="140" viewBox="0 0 100 140" fill="none" xmlns="http://www.w3.org/2000/svg">
<g opacity="0.5">
<path d="M39.75 38.75C39 44 38.5 49.25 38 54.25C37.75 57 37.25 60 37.25 62.75C37.25 71 37.5 79.5 38 87.75C38.5 97 39.75 106.25 40.5 115.5C40.5 116.25 39.25 117.75 38.5 118C35.5 118.75 33.5 117.5 33.25 115.25C33 111.75 32.75 108.25 32.75 104.75C32.75 85 32.75 65.25 32.75 45.5C32.75 40.5 32.5 35.5 32.5 30.25C32.5 26.5 35 23.5 37 20C39.75 23.5 41.75 26.75 44.25 29.75C50.75 37.5 57.25 45 64 52.5C65 53.75 66 55 67 56.25C68.5 58 68.5 59.5 66.75 61.5C57 55.25 48.75 47.25 41.25 38.25C40.5 38.5 40 38.75 39.75 38.75Z" fill="#111827"/>
</g>
</svg>
