<svg width="100" height="140" viewBox="0 0 100 140" fill="none" xmlns="http://www.w3.org/2000/svg">
<g opacity="0.5">
<path d="M27.75 67.0405C27.75 54.2905 27.75 41.5405 27.75 28.7905C27.75 26.0405 28 23.2905 28.25 20.5405C28.5 17.5405 30.75 16.5405 33 18.5405C38.75 23.2905 44.25 28.2905 50 33.2905C56.25 38.5405 62.25 44.0405 68.5 49.2905C71.25 51.5405 71.5 54.2905 69 56.7905C65.25 60.5405 61.5 64.2905 57.5 67.5405C53.5 71.0405 49.25 74.0405 45.25 77.2905C42.25 79.7905 39.25 82.5405 36.75 85.5405C36 86.5405 36 88.5405 36.25 90.0405C36.25 92.0405 36.75 94.0405 36.75 96.0405C37.25 103.791 37.5 111.541 38 119.291C38 122.041 36.25 124.041 33.25 123.791C32.25 123.791 30.5 121.541 30.25 120.291C29.25 112.291 28.5 104.29 28 96.2905C27.25 86.5405 27.5 76.7905 27.75 67.0405ZM35.5 76.5405C36.5 76.0405 37 75.7905 37.75 75.2905C39.75 73.7905 41.5 72.0405 43.5 70.5405C49.5 65.5405 55.5 60.5405 61.5 55.2905C63.25 53.7905 63.5 52.5405 61.5 51.0405C54.5 45.2905 47.5 39.5405 40.5 33.7905C39 32.5405 37.5 32.5405 37 34.7905C36.75 35.7905 36.5 36.7905 36.5 38.0405C36.25 44.2905 35.75 50.5405 35.75 56.7905C35.5 63.0405 35.5 69.5405 35.5 76.5405Z" fill="#111827"/>
</g>
</svg>
