<svg width="100" height="140" viewBox="0 0 100 140" fill="none" xmlns="http://www.w3.org/2000/svg">
<g opacity="0.5">
<path d="M32.2619 38.7461C32.0119 58.9961 33.0118 78.7461 34.2618 98.9961C38.7618 96.9961 42.5118 95.2461 46.2618 93.2461C48.5118 92.2461 50.2618 90.7461 52.5118 89.7461C54.7618 88.4961 56.5118 88.4961 58.7618 90.4961C64.2618 95.4961 70.0118 100.246 75.7618 104.746C77.2618 105.996 78.0119 107.246 76.5119 108.746C75.2619 109.996 74.0118 111.496 71.7618 109.496C67.0118 104.996 62.0119 100.996 57.2619 96.7461C56.0119 95.7461 55.0118 95.2461 53.7618 96.2461C47.2618 100.746 40.5119 105.246 34.0119 109.496C33.7619 109.496 33.7619 109.746 33.5119 109.996C32.0119 110.746 30.5118 111.246 29.2618 111.996C28.7618 110.496 28.0118 108.996 28.0118 107.496C27.7618 102.246 28.2619 96.9961 27.7619 91.4961C27.2619 80.2461 26.5118 68.9961 25.5118 57.7461C24.7618 48.9961 24.7619 39.9961 26.0119 31.2461C26.5119 28.4961 30.0119 26.9961 32.2619 28.4961C37.5119 31.9961 42.7619 35.2461 47.7619 38.9961C51.0119 41.2461 54.0118 41.2461 57.0118 39.2461C62.2618 35.9961 67.2619 32.4961 72.2619 28.9961C75.5119 26.7461 75.7619 26.7461 77.2619 30.9961C71.5119 35.4961 65.5118 39.7461 60.0118 44.9961C55.2618 49.7461 51.2619 49.4961 46.0119 45.9961C42.2619 43.4961 37.7619 41.4961 32.2619 38.7461Z" fill="#111827"/>
</g>
</svg>
