<svg width="100" height="140" viewBox="0 0 100 140" fill="none" xmlns="http://www.w3.org/2000/svg">
<g opacity="0.5">
<path d="M65.0603 55.75C62.3103 61.25 57.5603 65.25 52.8103 69.5C49.5603 72.75 46.0603 75.75 43.0603 79C42.5603 79.5 42.5603 81.25 43.0603 81.75C47.0603 86 51.0603 90.25 55.0603 94.5C61.3103 101 67.5603 107.5 73.5603 114.25C75.3103 116.25 74.3103 118.5 71.8103 119C68.3103 119.75 65.0603 118.25 63.0603 115.25C58.8103 108 52.0603 102.75 46.5603 97C43.8103 94 40.3103 91.75 37.3103 89.25C36.5603 88.75 35.8103 88.5 34.5603 87.75C34.3103 89 33.8103 90 33.8103 90.75C33.5603 99.25 33.3103 108 32.8103 116.5C32.8103 117.75 31.8103 119 30.8103 120C29.0603 121.5 27.3103 122.5 25.0603 124C24.5603 88.25 27.3103 53.25 28.0603 18C28.5603 17.75 28.8103 17.75 29.3103 17.5C31.3103 19 33.8103 20.5 35.3103 22.5C45.5603 33.5 55.3103 44.5 65.0603 55.75ZM34.3103 75.75C34.5603 76 35.0603 76 35.3103 76.25C41.5603 69.5 48.0603 62.75 54.3103 56C54.8103 55.5 54.5603 54 54.0603 53.5C48.8103 47.5 43.3103 41.5 37.8103 35.75C37.3103 35.25 36.8103 35.25 35.5603 34.5C35.0603 48.5 34.5603 62.25 34.3103 75.75Z" fill="#111827"/>
</g>
</svg>
