<svg width="100" height="140" viewBox="0 0 100 140" fill="none" xmlns="http://www.w3.org/2000/svg">
<g opacity="0.5">
<path d="M75 61.3409C75 55.5909 75 49.3409 75 43.3409C74.75 43.0909 74.25 42.8409 74 42.5909C65.75 48.8409 57.25 54.5909 50.25 62.8409C41.25 56.3409 32 49.5909 22.25 42.3409C22.25 44.8409 22.25 46.5909 22.25 48.0909C22.75 57.8409 23.5 67.3409 24 77.0909C24.25 85.3409 24.5 93.3409 24.75 101.591C24.75 103.841 24.5 105.091 22.25 105.341C18.25 105.841 16.5 104.841 16.25 102.091C16 97.0909 15.75 91.8409 15.75 86.8409C15.75 74.3409 15.75 61.8409 15.5 49.3409C15.5 45.5909 15.25 41.5909 15 37.8409C15 37.0909 15 36.3409 15 35.8409C15.75 32.3409 17.25 31.5909 20.25 33.5909C26 37.5909 31.75 41.8409 37.5 46.0909C40.75 48.3409 43.75 50.5909 47 52.5909C48 53.0909 50 53.0909 51 52.3409C59.5 46.3409 68 40.0909 76.5 34.0909C77.25 33.5909 78.25 33.3409 79 32.8409C79.5 33.8409 80.25 34.5909 80.25 35.5909C80.75 42.5909 80.75 49.5909 81.75 56.3409C83.25 66.3409 83 76.5909 84.5 86.5909C85.25 91.8409 85.5 97.3409 86 102.591C86.25 104.091 83.75 106.591 81.5 106.841C79.25 107.091 77.75 106.091 77.5 103.841C77.25 101.341 77.25 98.8409 77 96.3409C76.75 90.0909 76.75 83.8409 76.25 77.5909C75.75 73.3409 77 69.3409 76.25 65.0909C75.75 64.0909 75.25 62.8409 75 61.3409Z" fill="#111827"/>
</g>
</svg>
