<svg width="100" height="140" viewBox="0 0 100 140" fill="none" xmlns="http://www.w3.org/2000/svg">
<g opacity="0.5">
<path d="M44.1581 72.75C56.4081 77 67.9081 80.75 77.4081 89.75C74.9081 91.5 72.4081 93 70.1581 94.5C58.6581 101.75 47.1581 109 35.4081 116C33.4081 117.25 30.9081 117.75 28.6581 118C27.9081 118 26.4081 116.75 25.9081 115.75C25.4081 114 25.1581 112.25 25.1581 110.5C24.6581 104.25 24.4081 98.25 24.1581 92C23.6581 78.75 23.6581 65.5 22.9081 52.25C22.4081 44.25 21.1581 36.5 20.1581 28.5C19.9081 26.25 19.6581 24 21.9081 22.5C26.6581 25 31.1581 27.5 35.9081 30C44.6581 34.75 53.6581 39.5 62.4081 44.25C68.9081 47.75 69.1581 48.25 64.4081 53.25C58.9081 59 52.6581 64.25 46.9081 69.5C45.9081 70.5 45.4081 71.5 44.1581 72.75ZM30.6581 75.5C33.1581 73.75 35.6581 72.75 37.6581 71C39.9081 69.25 41.6581 66.75 43.6581 65C48.4081 60.5 53.6581 56.25 58.4081 52C59.9081 50.75 60.6581 49.75 58.1581 48.5C49.4081 44.5 40.4081 40.25 31.6581 36.25C29.1581 35 28.4081 35.5 28.4081 38.25C28.6581 42.75 29.1581 47.25 29.4081 51.75C29.6581 58.25 29.9081 64.75 30.1581 71.5C30.1581 72.5 30.4081 73.75 30.6581 75.5ZM33.1581 108.5C35.1581 107.5 36.6581 107 37.9081 106.25C41.6581 104 45.1581 101.5 48.9081 99.25C53.1581 96.75 57.4081 94.25 61.6581 92C63.9081 90.75 63.4081 89.75 61.4081 88.75C58.9081 87.75 56.4081 86.75 53.9081 85.75C48.9081 83.75 44.1581 81.5 39.1581 79.5C36.6581 78.5 31.1581 82 31.1581 84.5C31.9081 92 32.6581 99.75 33.1581 108.5Z" fill="#111827"/>
</g>
</svg>
