<svg width="100" height="140" viewBox="0 0 100 140" fill="none" xmlns="http://www.w3.org/2000/svg">
<g opacity="0.5">
<path d="M65.5 66.75C61 66.75 57.25 66.75 53.75 66.75C43.5 67 33 67.2501 22.75 67.2501C22 67.2501 21 66.5001 20 66.0001C34.5 50.0001 50.25 35.25 65.75 20C66.75 22.25 67.5 23.75 68 25.25C68.25 26.25 68 27.5 67.25 28.25C58.75 36.5 50.25 44.75 42 53.25C40 55.25 38.25 57.5 35.75 60C37.5 60.25 38.75 60.75 39.75 60.75C50.25 60.75 60.5 60.5 71 60.25C72.5 60.25 74.25 59.7501 75.75 59.7501C78.5 59.7501 79.25 61.75 78 64C69 79.25 59.5 94 49.25 108.25C47.5 110.75 46.25 113.5 45 116.5C44 119 38 120.5 36 118.75C35.5 118.25 35.5 117 35.75 116.5C37.75 112.75 39.75 109 42 105.5C49.25 94.25 56.5 83 63.5 71.75C64 70.25 64.5 68.75 65.5 66.75Z" fill="#111827"/>
</g>
</svg>
