<svg width="100" height="140" viewBox="0 0 100 140" fill="none" xmlns="http://www.w3.org/2000/svg">
<g opacity="0.5">
<path d="M78.7181 59.7566C75.7181 57.0066 73.2181 54.7566 70.4681 52.2566C67.2181 49.2566 64.2181 46.2566 60.9681 43.5066C59.9681 42.7566 58.7181 42.5066 57.4681 42.0066C56.9681 43.0066 56.4681 44.0066 56.4681 45.2566C55.7181 56.2566 55.2181 67.2566 54.4681 78.0066C53.7181 87.7566 52.9681 97.5066 52.2181 107.257C51.9681 111.257 47.7181 113.007 44.7181 110.257C37.2181 104.007 29.9681 97.5066 22.7181 91.0066C19.4681 88.0066 19.4681 86.7566 20.9681 83.2566C21.9681 81.0066 23.4681 80.7566 25.2181 82.5066C26.4681 83.7566 27.7181 85.5066 28.9681 86.7566C32.9681 90.5066 37.2181 94.2566 41.4681 97.7566C41.9681 98.2566 42.7181 98.5066 43.7181 99.0066C44.2181 95.7566 45.2181 92.7566 45.4681 89.7566C45.9681 85.5066 45.9681 81.0066 46.2181 76.5066C46.4681 73.0066 46.9681 69.5066 47.2181 66.0066C47.9681 54.0066 48.7181 42.2566 49.7181 30.2566C49.9681 27.2566 51.9681 26.7566 55.7181 28.5066C56.2181 28.7566 56.9681 29.2566 57.4681 29.7566C64.4681 36.7566 71.7181 44.0066 78.7181 51.0066C79.9681 52.2566 80.4681 53.5066 79.4681 55.2566C79.4681 56.5066 79.4681 57.7566 78.7181 59.7566Z" fill="#111827"/>
</g>
</svg>
