<svg width="100" height="140" viewBox="0 0 100 140" fill="none" xmlns="http://www.w3.org/2000/svg">
<g opacity="0.5">
<path d="M76.5 112.25C75.25 112.5 74.25 112.5 73.5 113C69.5 114.75 69.5 115 67 111.25C62.5 105 58.25 98.5 53.75 92.5C49 86.25 50 86.25 45 92.25C40.5 97.5 36.25 103 32 108.5C31.5 109 30.5 109.5 29.75 109.5C28 109.75 26.25 110 24.5 110.25C23.75 110.25 23 110.25 22.5 110.25C22.75 109.5 22.5 108.5 23 108C25.25 105.25 27.75 102.75 30 100.25C34.75 94.5 39.5 89 44.25 83C44.75 82.5 44.5 80.5 44 80C38 73.25 32 66.5 26 60.25C22.5 56.5 22.25 56.5 25.25 52.5C31.75 44 38.5 35.5 45 27C45.75 26.25 46.75 25.5 47.5 25C54 34.25 61.75 42 69.5 49.5C71.25 51.25 72.75 53 74.25 55C74.75 55.5 74.25 57.25 73.75 58C68.25 65 62.75 72 56.75 79C54.75 81.25 54.75 83.25 56.5 85.25C61.25 91.5 66.25 97.75 71 104C72.5 106.25 74.5 109.25 76.5 112.25ZM47.25 34.75C46.5 35.25 46 35.5 45.5 36C41 41.5 36.5 47 32 52.5C31.5 53.25 31.25 54.75 31.75 55.5C37.25 62.25 42.75 69.25 48.25 75.75C48.75 76.25 50.5 76.25 51 75.75C56 70 60.75 64.25 65.5 58.25C66.25 57.5 66 55 65.25 54C60 48 54.75 42 49.5 36.25C48.75 36 48 35.5 47.25 34.75Z" fill="#111827"/>
</g>
</svg>
