<svg width="100" height="140" viewBox="0 0 100 140" fill="none" xmlns="http://www.w3.org/2000/svg">
<g opacity="0.5">
<path d="M83.75 100.336C84 103.086 84.5 106.086 81.25 107.586C78.5 108.836 77.5 108.336 77.25 105.336C76.75 96.8359 76.25 88.3359 76.25 79.8359C76.25 77.0859 75 75.5859 73 74.3359C67.25 70.8359 61.25 67.0859 55.5 63.5859C47.5 58.5859 50 59.0859 43 64.0859C38.25 67.5859 33.75 71.5859 28.75 74.8359C25 77.3359 24.5 80.5859 24.75 84.5859C25.25 90.3359 25.5 95.8359 25.75 101.586C25.75 104.086 24.5 105.586 22 105.586C19.25 105.586 19.25 103.586 19.25 101.586C19 89.0859 19 76.3359 18.75 63.8359C18.5 55.0859 18 46.3359 17.5 37.5859C17.5 36.3359 18.25 34.8359 18.75 33.5859C20 34.0859 21.5 34.3359 22.75 35.0859C25.75 36.8359 28.25 38.8359 31.25 40.8359C36.25 44.0859 41 47.3359 46 50.5859C48 52.0859 49.5 52.0859 51.75 50.3359C59.5 44.3359 67.75 38.8359 75.75 33.0859C77.5 31.8359 79.5 32.5859 80 35.3359C80.5 37.3359 80.75 39.3359 81 41.3359C81.25 47.8359 81.5 54.3359 81.75 60.5859C82.5 72.5859 83.25 84.3359 84 96.3359C83.75 97.3359 83.75 98.8359 83.75 100.336ZM74.25 42.3359C73.75 42.3359 73.5 42.3359 73 42.3359C67.75 46.0859 62.25 50.0859 57 53.8359C55.25 55.0859 56.25 56.5859 57.5 57.5859C62 60.5859 66.75 63.5859 71.5 66.5859C72.5 67.3359 74 67.3359 75.75 68.0859C75 59.0859 74.5 50.8359 74.25 42.3359ZM24.5 56.3359C24.5 59.8359 24.5 63.0859 24.5 66.5859C24.5 68.5859 25.5 69.3359 27 68.0859C32 64.5859 36.75 60.8359 41.5 57.0859C42.75 56.0859 43 54.8359 41.25 53.8359C36.75 50.8359 32 48.0859 27.5 45.0859C25.25 43.5859 24.5 44.0859 24.25 47.0859C24.5 50.0859 24.5 53.3359 24.5 56.3359Z" fill="#111827"/>
</g>
</svg>
