<svg width="48" height="48" viewBox="0 0 48 48" fill="none" xmlns="http://www.w3.org/2000/svg">
<path d="M0 5.71544C0 4.67611 0.83934 3.83997 1.88263 3.83997H5.45179C7.17753 3.83997 8.70717 4.84022 9.421 6.34059H41.6611C43.7241 6.34059 45.2302 8.29421 44.689 10.2791L41.4728 22.1805C40.806 24.6343 38.5704 26.3456 36.021 26.3456H13.3902L13.8138 28.5727C13.9864 29.4558 14.763 30.0966 15.6651 30.0966H38.2802C39.3235 30.0966 40.1628 30.9327 40.1628 31.972C40.1628 33.0114 39.3235 33.8475 38.2802 33.8475H15.6651C12.9509 33.8475 10.6212 31.9252 10.1191 29.2761L6.07149 8.09885C6.01658 7.8019 5.75771 7.59091 5.45179 7.59091H1.88263C0.83934 7.59091 0 6.75476 0 5.71544ZM10.0407 40.0991C10.0407 39.6065 10.1381 39.1187 10.3273 38.6637C10.5165 38.2086 10.7939 37.7951 11.1435 37.4468C11.4932 37.0985 11.9082 36.8222 12.3651 36.6337C12.8219 36.4452 13.3115 36.3481 13.806 36.3481C14.3004 36.3481 14.79 36.4452 15.2469 36.6337C15.7037 36.8222 16.1188 37.0985 16.4684 37.4468C16.818 37.7951 17.0954 38.2086 17.2846 38.6637C17.4738 39.1187 17.5712 39.6065 17.5712 40.0991C17.5712 40.5917 17.4738 41.0794 17.2846 41.5345C17.0954 41.9896 16.818 42.4031 16.4684 42.7514C16.1188 43.0997 15.7037 43.376 15.2469 43.5645C14.79 43.753 14.3004 43.85 13.806 43.85C13.3115 43.85 12.8219 43.753 12.3651 43.5645C11.9082 43.376 11.4932 43.0997 11.1435 42.7514C10.7939 42.4031 10.5165 41.9896 10.3273 41.5345C10.1381 41.0794 10.0407 40.5917 10.0407 40.0991ZM36.3975 36.3481C37.3962 36.3481 38.3539 36.7433 39.06 37.4468C39.7661 38.1502 40.1628 39.1043 40.1628 40.0991C40.1628 41.0939 39.7661 42.048 39.06 42.7514C38.3539 43.4548 37.3962 43.85 36.3975 43.85C35.3989 43.85 34.4412 43.4548 33.7351 42.7514C33.029 42.048 32.6323 41.0939 32.6323 40.0991C32.6323 39.1043 33.029 38.1502 33.7351 37.4468C34.4412 36.7433 35.3989 36.3481 36.3975 36.3481Z" fill="#111827"/>
</svg>
