<svg width="100" height="140" viewBox="0 0 100 140" fill="none" xmlns="http://www.w3.org/2000/svg">
<g opacity="0.5">
<path d="M20 86.1772C22 83.9272 23.75 82.1772 25 80.1772C28.25 74.9272 31.5 69.6772 34.5 64.4272C39.5 55.4272 44.5 46.4272 49.5 37.4272C51.75 33.4272 54 29.6772 56 25.6772C57 23.6772 58.5 21.9272 61 22.6772C62.75 23.1772 63.25 26.9272 62 28.9272C54.25 43.1772 46.75 57.4273 39 71.6773C37.75 73.6773 36.5 75.6772 35.25 77.6772C33.75 79.6772 34.25 81.4273 36.25 82.9273C43 88.1773 49.75 93.4272 56.25 98.6772C62 103.427 67.75 108.177 73.5 112.927C74.75 114.177 76.25 115.177 77.5 116.427C78 116.927 78 117.927 78 118.677C77.25 118.677 76.75 118.927 76 118.927C74.25 118.927 72.25 118.677 70.5 118.677C70 118.677 69.25 118.177 68.75 117.677C57.25 108.177 45.25 99.1773 32.25 91.6773C30 90.4273 27.75 89.6772 25.5 88.6772C24 88.1772 22.25 87.1772 20 86.1772Z" fill="#111827"/>
</g>
</svg>
