<svg width="100" height="140" viewBox="0 0 100 140" fill="none" xmlns="http://www.w3.org/2000/svg">
<g opacity="0.5">
<path d="M56.9722 36.6406C56.9722 41.3906 56.9722 45.3906 56.9722 49.3906C56.9722 50.8906 57.4722 52.3906 57.4722 53.8906C57.9722 64.1406 58.2222 74.3906 58.7222 84.6406C59.2222 92.8906 59.9722 100.891 60.7222 109.141C61.2222 115.141 60.4722 115.891 53.4722 116.641C52.9722 113.891 52.2222 111.391 51.9722 108.641C50.7222 96.1406 49.7222 83.6406 48.4722 71.1406C47.9722 64.8906 47.7222 58.3906 46.9722 52.1406C46.4722 48.1406 45.2222 43.8906 43.9722 38.8906C39.7222 42.8906 36.2222 46.1406 32.4722 49.3906C29.4722 52.1406 26.4722 54.6406 23.2222 56.8906C21.9722 57.6406 19.7222 57.1406 17.7222 56.8906C17.7222 56.8906 17.2222 54.8906 17.7222 54.6406C24.7222 47.8906 31.9722 41.1406 39.2222 34.3906C42.7222 31.1406 46.2222 27.6406 49.9722 24.3906C52.9722 21.6406 54.2222 21.8906 56.9722 25.1406C63.7222 33.8906 70.4722 42.3906 77.4722 50.8906C79.2222 53.1406 81.2222 55.3906 82.9722 57.8906C83.2222 58.3906 83.4722 59.3906 83.2222 59.6406C82.4722 60.3906 81.4722 61.6406 80.7222 61.3906C79.2222 61.1406 77.2222 60.3906 76.2222 59.3906C70.4722 52.6406 64.7222 45.8906 58.9722 39.1406C58.7222 38.3906 58.2222 37.8906 56.9722 36.6406Z" fill="#111827"/>
</g>
</svg>
