<svg width="100" height="140" viewBox="0 0 100 140" fill="none" xmlns="http://www.w3.org/2000/svg">
<g opacity="0.5">
<path d="M84.25 39C84.25 40 84.25 41.25 84.25 42.25C84.75 55.5 85 68.75 85.5 82C85.75 87 86.25 92 86.5 97C86.5 98.5 85.5 100.25 85 102C79 97.25 73.5 93.25 68.25 89C63 84.5 57.75 79.75 52.5 75.25C51 74 49.75 74.25 48.25 75.5C40.75 81.75 33.25 88 25.75 94.25C22.75 96.75 20.5 99.75 17.25 103.25C16.5 101 15.5 99.5 15.5 97.75C15.25 78.5 15 59.5 15 40.25C15 39.25 15.5 37.5 16 37.5C17.25 37.5 18.5 37.75 19.5 38.5C29 46.75 38.5 55 47.75 63.5C49.75 65.25 51 65 52.75 63.5C60.75 56.75 69 50 77 43.25C79 41.5 81.25 40 83.5 38.25C83.75 38.5 84 38.75 84.25 39ZM79 49.25C77.5 50 76.75 50.5 76 51C70 56.25 64 61.75 58 67C55.25 69.5 55.25 70 58 72.25C63.75 76.75 69.5 81.5 75.25 86C76.25 86.75 77.5 87.5 79 88.25C79 75.25 79 62.75 79 49.25ZM22.75 50C22.75 62.75 22.75 74.5 22.75 86.75C24 86.25 24.75 86 25.25 85.75C31.25 81 37 76 42.75 71C44.75 69.25 44.25 68 42.5 66.75C38.5 63.25 34.5 59.5 30.25 55.75C28.25 53.75 25.75 52.25 22.75 50Z" fill="#111827"/>
</g>
</svg>
