<svg width="100" height="140" viewBox="0 0 100 140" fill="none" xmlns="http://www.w3.org/2000/svg">
<g opacity="0.5">
<path d="M59.4192 76C58.9192 80.25 58.1692 83.75 58.1692 87.25C57.9192 96 57.6693 104.5 57.6693 113.25C57.6693 115.75 55.4192 118.25 52.9192 118.25C51.6692 118.25 50.4193 118 48.4193 117.5C48.9193 110 49.4192 102.5 49.9192 95.25C50.1692 90.75 50.6692 86.25 51.1692 81.75C51.4192 78 52.1693 74.5 52.1693 70.75C52.1693 69.75 51.6693 68.25 50.9193 67.25C44.1693 59.75 36.9193 52.25 30.1693 44.5C26.6693 40.25 23.9192 35.25 20.6692 30.5C19.1692 28.25 20.4193 26.25 22.1693 25.25C22.9193 24.75 25.1692 25.5 26.1692 26.5C32.6692 34 38.6692 41.5 44.9192 49.25C47.6692 52.5 50.4193 55.5 53.4193 59.25C53.9193 57.5 54.4193 56.5 54.6693 55.5C55.1693 47.75 55.6693 40 55.9193 32.25C55.9193 30.25 56.1693 28 56.4193 26C56.6693 23.25 58.9192 22.5 61.1692 22.5C63.6692 22.75 64.6693 25 64.6693 27.25C64.4193 32.5 63.4192 37.75 62.9192 42.75C61.9192 49.75 60.9192 56.75 60.4192 63.75C60.1692 65.5 61.4192 67.75 62.6692 69C66.4192 73.25 70.4192 77 74.4192 81C75.6692 82.5 76.9192 84 77.9192 85.75C78.9192 87.5 78.1692 89.25 76.1692 89C74.4192 88.75 72.6692 88 71.4192 87C68.1692 84.25 65.4192 81.25 62.4192 78.25C61.4192 77.5 60.9192 77 59.4192 76Z" fill="#111827"/>
</g>
</svg>
