<svg width="100" height="140" viewBox="0 0 100 140" fill="none" xmlns="http://www.w3.org/2000/svg">
<g opacity="0.5">
<path d="M50.25 38.75C49.5 44 49 49.25 48.5 54.25C48.25 57 47.75 60 47.75 62.75C47.75 71 48 79.5 48.5 87.75C49 97 50.25 106.25 51 115.5C51 116.25 49.75 117.75 49 118C46 118.75 44 117.5 43.75 115.25C43.5 111.75 43.25 108.25 43.25 104.75C43.25 85 43.25 65.25 43.25 45.5C43.25 40.5 43 35.5 43 30.25C43 26.5 45.5 23.5 47.5 20C50.25 23.5 52.25 26.75 54.75 29.75C61.25 37.5 67.75 45 74.5 52.5C75.5 53.75 76.5 55 77.5 56.25C79 58 79 59.5 77.25 61.5C67.5 55.25 59.25 47.25 51.75 38.25C51 38.5 50.5 38.75 50.25 38.75Z" fill="#111827"/>
</g>
</svg>
