<svg width="100" height="140" viewBox="0 0 100 140" fill="none" xmlns="http://www.w3.org/2000/svg">
<g opacity="0.5">
<path d="M53.5764 25C53.5764 26.25 53.5764 27.25 53.5764 28.25C53.5764 37 53.5764 45.75 53.8264 54.75C54.0764 65.5 54.3264 76.25 54.8264 87C55.3264 95.25 56.0764 103.5 56.5764 112C56.5764 112.25 56.5764 112.5 56.5764 112.5C57.0764 114.25 58.3264 116.5 55.0764 117.25C51.8264 118 49.5764 116.25 49.0764 113.25C48.5764 108.5 48.3264 103.75 48.0764 99C47.3264 84.5 46.5764 69.75 45.5764 55.25C44.8264 46.5 43.8264 37.75 42.5764 29.25C42.3264 27 42.5764 26.25 45.0764 26.25C47.8264 26 50.5764 25.5 53.5764 25Z" fill="#111827"/>
</g>
</svg>
