<svg width="100" height="140" viewBox="0 0 100 140" fill="none" xmlns="http://www.w3.org/2000/svg">
<g opacity="0.5">
<path d="M41.25 37.4092C41.25 40.9091 41.25 43.1591 41.25 45.6591C41.25 48.4091 42 50.9092 41.75 53.6592C41.5 56.6592 42.75 58.6592 44.75 60.4092C50.5 65.4092 56 70.4092 61.75 75.4092C63 76.4092 64 77.4091 62.5 78.9091C61.25 80.1591 60 80.6591 58.5 79.4091C54.25 75.6591 50 72.1591 46 68.4091C45.25 67.6591 44.25 67.1592 43.5 66.6592C43.25 66.6592 42.75 66.9092 42.5 66.9092C43.5 82.4092 44.5 97.9092 45.5 113.409C42.5 113.159 40 113.159 37.5 112.909C37.5 110.409 37.5 107.409 37.5 104.659C37.25 91.4091 37.25 78.1592 36.75 64.9092C36.5 53.6592 35.5 42.4092 35 31.1592C35 29.9092 35.75 27.9091 36.75 27.6591C38 27.1591 39.75 27.9091 41 28.9091C48.5 35.1591 55.75 41.9092 63.25 48.1592C65.75 50.1592 64.5 52.1592 63.75 54.1592C63.5 54.4092 61.75 54.6592 61.25 54.1592C56.25 49.9092 51.25 45.6591 46.5 41.4091C44.5 39.9091 43.25 38.9092 41.25 37.4092Z" fill="#111827"/>
</g>
</svg>
