<svg width="100" height="140" viewBox="0 0 100 140" fill="none" xmlns="http://www.w3.org/2000/svg">
<g opacity="0.5">
<path d="M45.7919 51.0561C46.0419 50.0561 46.5419 48.8061 46.5419 47.8061C46.7919 40.5561 47.0419 33.3061 47.0419 26.0561C47.0419 22.8061 49.0419 22.5561 51.2919 22.5561C53.5419 22.3061 55.0419 22.8061 55.0419 25.8061C55.2919 33.3061 55.7919 40.8061 56.0419 48.3061C56.0419 49.3061 56.0419 50.5561 56.0419 51.5561C56.2919 51.8061 56.5419 52.0561 56.7919 52.0561C57.7919 51.0561 59.0419 50.3061 60.0419 49.3061C64.7919 43.3061 69.5419 37.3061 74.2919 31.3061C76.5419 28.5561 79.2919 27.5561 83.5419 28.3061C81.7919 31.3061 80.5419 34.3061 78.5419 36.8061C72.7919 44.5561 66.7919 52.0561 60.7919 59.8061C57.7919 63.5561 55.7919 67.3061 55.7919 72.5561C56.0419 85.3061 55.2919 98.3061 55.0419 111.056C55.0419 112.056 54.7919 113.056 54.7919 113.056C51.7919 114.306 49.2919 115.306 46.5419 116.806C46.7919 114.806 47.0419 112.806 47.0419 111.056C46.7919 95.8061 46.7919 80.5561 46.5419 65.3061C46.5419 64.5561 46.0419 63.3061 45.5419 62.8061C37.2919 55.3061 29.0419 48.0561 20.7919 40.5561C19.5419 39.5561 18.2919 38.5561 17.0419 37.5561C15.0419 36.0561 14.2919 34.0561 15.7919 31.8061C16.5419 30.5561 17.0419 29.0561 17.7919 27.5561C27.0419 35.8061 36.0419 43.8061 44.7919 51.8061C45.0419 51.5561 45.2919 51.3061 45.7919 51.0561Z" fill="#111827"/>
</g>
</svg>
