<svg width="100" height="140" viewBox="0 0 100 140" fill="none" xmlns="http://www.w3.org/2000/svg">
<g opacity="0.5">
<path d="M76.6046 67.2919C67.1046 73.5419 62.6046 83.2919 56.6046 91.7919C53.8546 95.7919 54.1046 99.2919 58.1046 103.292C63.1046 108.292 68.1046 113.292 73.1046 118.292C75.1046 120.042 75.1046 122.042 74.6046 124.292C74.3546 125.042 73.6046 126.292 72.8546 126.542C72.1046 126.792 70.8546 126.042 70.3546 125.542C67.8546 122.792 65.6046 120.042 63.1046 117.292C58.6046 112.542 54.3546 108.042 49.3546 102.542C46.6046 107.042 43.8546 111.042 41.6046 115.042C39.6046 118.542 38.3546 122.292 36.3546 125.542C35.6046 126.792 33.8546 128.292 32.6046 128.292C29.1046 128.292 28.1046 126.542 29.6046 123.292C31.8546 118.792 34.6046 114.292 37.1046 109.792C39.1046 106.292 41.6046 103.042 43.6046 99.2919C44.1046 98.5419 44.1046 96.7919 43.3546 96.0419C37.1046 88.0419 30.8546 80.2919 24.3546 72.5419C22.6046 70.5419 21.6046 68.7919 23.6046 66.2919C29.6046 58.2919 35.3546 50.2919 41.3546 42.2919C46.1046 36.0419 46.1046 36.2919 42.1046 29.7919C39.8546 26.2919 37.6046 23.0419 35.6046 19.5419C34.3546 17.5419 33.8546 15.2919 33.3546 13.0419C33.1046 12.2919 34.1046 10.5419 34.8546 10.2919C35.6046 10.0419 37.1046 10.7919 37.8546 11.5419C41.6046 16.7919 45.1046 22.0419 48.6046 27.5419C50.6046 30.5419 51.1046 30.7919 53.1046 27.7919C56.6046 22.5419 60.3546 17.2919 63.6046 12.0419C64.8546 10.0419 65.8546 9.29189 68.1046 10.7919C70.8546 12.5419 71.3546 13.7919 69.8546 16.0419C65.6046 22.0419 61.3546 28.0419 57.1046 34.0419C55.3546 36.2919 55.8546 38.2919 57.3546 40.2919C61.8546 46.5419 66.3546 52.7919 70.8546 59.0419C72.3546 61.2919 74.3546 64.2919 76.6046 67.2919ZM48.6046 91.7919C49.3546 91.0419 49.8546 90.5419 50.3546 90.0419C55.8546 82.5419 61.6046 75.0419 67.1046 67.5419C68.6046 65.5419 68.3546 63.7919 66.8546 61.7919C61.6046 55.7919 56.6046 49.5419 51.8546 43.2919C50.3546 41.5419 49.3546 41.7919 48.1046 43.2919C42.6046 50.7919 36.8546 58.0419 31.1046 65.5419C29.8546 67.0419 29.8546 68.5419 31.1046 70.0419C33.1046 72.5419 34.6046 75.0419 36.6046 77.2919C40.3546 82.2919 44.3546 86.7919 48.6046 91.7919Z" fill="#111827"/>
</g>
</svg>
