<svg width="100" height="140" viewBox="0 0 100 140" fill="none" xmlns="http://www.w3.org/2000/svg">
<g opacity="0.5">
<path d="M44.2711 40C53.5211 33.25 62.5211 26.5 71.2711 20C72.5211 22.25 71.7711 28 69.2711 30C63.0211 35.25 56.7711 40.25 50.5211 45.25C50.2711 45.5 49.7711 45.75 49.5211 46C41.5211 49.5 42.7711 56.25 43.5211 63.5C45.2711 62.5 47.0211 61.75 48.5211 60.75C54.7711 56.5 61.0211 52 67.2711 47.5C68.7711 46.25 69.7711 47 70.5211 48.5C71.7711 51.75 71.2711 53.75 68.2711 55.75C61.0211 61 53.7711 66 46.2711 71.25C43.7711 73 43.0211 74.75 43.0211 77.75C43.2711 89.5 43.2711 101 43.5211 112.75C43.5211 116 41.7711 116.5 39.2711 116.5C36.7711 116.5 34.7711 116.5 35.0211 113C35.2711 92.5 35.2711 72 35.2711 51.25C35.2711 44.25 35.2711 37 35.2711 30C35.2711 29.25 35.2711 28.5 35.2711 27.5C35.2711 25.75 35.0211 22.75 35.5211 22.75C37.7711 22 40.5211 22 43.0211 22C43.5211 22 44.0211 23.75 44.0211 24.75C44.2711 29.25 44.2711 34.25 44.2711 40Z" fill="#111827"/>
</g>
</svg>
