<svg width="100" height="140" viewBox="0 0 100 140" fill="none" xmlns="http://www.w3.org/2000/svg">
<g opacity="0.5">
<path d="M38.35 54.125C44.35 59.375 44.35 59.625 40.85 66.625C37.1 73.625 33.6 80.875 29.85 87.875C28.6 90.375 28.85 91.625 31.35 93.375C35.1 95.875 38.1 99.375 41.6 102.625C45.35 105.875 48.85 109.625 52.6 112.625C57.6 116.625 57.35 119.125 52.35 124.125C48.35 120.625 44.1 117.375 40.1 113.625C34.85 108.875 29.6 104.125 24.35 99.625C22.6 98.125 20.85 96.375 18.85 94.875C17.35 93.625 17.1 92.125 18.1 90.375C24.35 79.125 30.35 67.875 36.6 56.625C37.35 55.875 37.85 55.125 38.35 54.125Z" fill="#111827"/>
<path d="M55.6001 79.625C56.8501 77.125 57.6001 75.125 58.6001 73.375C62.8501 65.875 66.8501 58.375 71.1001 51.125C73.1001 47.375 73.1001 46.375 69.6001 43.875C59.8501 36.625 49.8501 29.625 40.1001 22.375C38.1001 20.875 37.8501 16.625 40.1001 15.375C40.8501 14.875 42.8501 14.875 43.6001 15.375C49.3501 19.625 54.8501 24.125 60.6001 28.625C65.3501 32.375 70.1001 35.625 75.1001 39.375C76.3501 40.375 77.6001 41.625 78.8501 42.625C80.8501 44.125 80.1001 45.875 79.3501 47.625C76.8501 53.375 74.6001 59.125 72.1001 64.875C69.6001 70.375 67.1001 75.625 64.1001 80.875C63.3501 82.125 61.1001 83.875 60.3501 83.625C58.1001 82.875 57.1001 80.875 55.6001 79.625Z" fill="#111827"/>
</g>
</svg>
