<svg width="100" height="140" viewBox="0 0 100 140" fill="none" xmlns="http://www.w3.org/2000/svg">
<g opacity="0.5">
<path d="M32 87.7499C31.5 75.9999 31.25 64.25 30.75 52.5C30.5 43 30.25 33.5 30 23.75C30 21.75 30.25 20 32.75 20C35.75 20 38.25 22.5 37.5 24.5C35.25 31.25 38 37.75 37.25 44.25C37.25 45.25 38 46.5 39 47C48.25 52.25 57.5 57.25 66.75 62.5C67.5 63 68.25 63.4999 69 63.9999C70.75 65.2499 71 66.25 69.5 68.25C63.75 75.5 56.25 80.7499 49 86.4999C46.5 88.4999 43.5 90.25 41.25 92.5C40.25 93.5 39.5 94.9999 39.5 96.4999C39.5 102.75 40 108.75 40.25 115C40.25 116.25 40 117.75 39.5 118.75C38.25 121 36 121.25 34 120.5C33.25 120.25 32.75 118.25 32.75 117.25C32.75 107.5 32.75 97.75 32.75 88C32.25 87.75 32 87.7499 32 87.7499ZM38.25 82.25C38.5 82.5 39 82.75 39.25 83C47 78.25 54.75 73.5 62.5 67.5C53.75 63 46.25 59 38 54.75C38.25 64.25 38.25 73.25 38.25 82.25Z" fill="#111827"/>
</g>
</svg>
