<svg width="100" height="140" viewBox="0 0 100 140" fill="none" xmlns="http://www.w3.org/2000/svg">
<g opacity="0.5">
<path d="M25 31.8041C27.25 31.8041 29 31.5541 30.75 31.8041C31.5 31.8041 32.5 32.8041 32.75 33.5541C35.75 39.5541 38.75 45.8041 41.75 52.0541C43.75 55.8041 45.75 59.8041 48 64.3041C49.5 61.0541 51 58.8041 52 56.0541C55.5 48.0541 59.25 39.8041 62.75 31.5541C64.25 27.8041 65.25 27.3041 70 27.5541C69.75 29.0541 69.5 30.5541 69 32.0541C66.75 38.0541 64.25 43.8041 61.75 49.5541C58.75 56.3041 55.5 63.0541 52.5 69.8041C52 70.8041 52 72.0541 52.5 73.0541C56.5 80.8041 60.5 88.5541 64.75 96.3041C67.25 100.804 69.75 105.054 72.25 109.554C73.5 111.804 72.75 112.554 70.5 113.304C67.25 114.054 65.75 113.054 64.25 110.054C59.75 101.304 55 92.5541 50.5 84.0541C50 83.0541 49.25 82.3041 48.25 80.8041C45.75 86.0541 43.25 90.8041 41.25 95.5541C39.25 100.054 37.75 104.804 36 109.554C34.75 112.554 32.25 113.304 29.75 111.304C29.25 111.054 29.25 109.554 29.5 108.804C32.25 102.304 35 95.8041 38 89.0541C40.25 84.0541 42.5 79.0541 44.25 73.8041C44.75 72.3041 44.5 70.3041 43.75 68.8041C40 61.5541 36 54.3041 32.25 47.0541C30 42.8041 28 38.3041 26 33.8041C25.25 33.8041 25.25 32.8041 25 31.8041Z" fill="#111827"/>
</g>
</svg>
